# xmcd
#
# Track frame offsets:
#	150
#	21450
#	52862
#	66453
#	78970
#	92657
#	109228
#	125345
#	139661
#	156974
#	172412
#	185817
#	204819
#	213982
#	233965
#	257363
#	269597
#	286033
#	320988
#	336571
#
# Disc length: 4626 seconds
#
# Revision: 1
# Processed by: cddbd v1.5.2PL0 Copyright (c) Steve Scherf et al.
# Submitted via: audiograbber 1.83.01
#
DISCID=35121014
DTITLE=Fleetwood Mac - Black Magic - The Best Of The Early Years
DYEAR=2011
DGENRE=Blues
TTITLE0=The Green Manalishi (With The Two Pronged Crown) Start
TTITLE1=Black Magic Woman
TTITLE2=Man Of The World
TTITLE3=Oh Well
TTITLE4=Blues In B Flat Minor
TTITLE5=Do You Give A Damn For Me
TTITLE6=Buzz Me Baby
TTITLE7=Like It This Way 
TTITLE8=Leaving Town Blues
TTITLE9=World In Harmony
TTITLE10=Someone's Gonna Get Their Head Kicked In Tonight
TTITLE11=Everyday I Have The Blues
TTITLE12=Tell Me From The Start
TTITLE13=Stranger Blues
TTITLE14=Jumping At Shadows
TTITLE15=The Madge Sessions No. 2
TTITLE16=My Baby's Sweeter
TTITLE17=Coming Your Way
TTITLE18=I Have To Laugh
TTITLE19=Farewell
EXTD=
EXTT0=
EXTT1=
EXTT2=
EXTT3=
EXTT4=
EXTT5=
EXTT6=
EXTT7=
EXTT8=
EXTT9=
EXTT10=
EXTT11=
EXTT12=
EXTT13=
EXTT14=
EXTT15=
EXTT16=
EXTT17=
EXTT18=
EXTT19=
PLAYORDER=
